<?xml version="1.0" encoding="UTF-8" standalone="no"?><!DOCTYPE svg PUBLIC "-//W3C//DTD SVG 1.1//EN" "http://www.w3.org/Graphics/SVG/1.1/DTD/svg11.dtd"><svg width="100%" height="100%" viewBox="0 0 5 5" version="1.1" xmlns="http://www.w3.org/2000/svg" xmlns:xlink="http://www.w3.org/1999/xlink" xml:space="preserve" xmlns:serif="http://www.serif.com/" style="fill-rule:evenodd;clip-rule:evenodd;stroke-linejoin:round;stroke-miterlimit:2;"><rect id="Artboard4" x="0" y="0" width="4.8" height="4.8" style="fill:none;"/><clipPath id="_clip1"><rect x="0" y="0" width="4.8" height="4.8"/></clipPath><g clip-path="url(#_clip1)"><g><path d="M1.108,0.991l2.053,-0.317c-0.019,-0.099 -0.036,-0.186 -0.05,-0.258c-0.222,-0.079 -0.461,-0.123 -0.711,-0.123c-0.494,-0 -0.948,0.171 -1.308,0.455c0.006,0.015 0.012,0.036 0.016,0.243" style="fill:#fff;fill-rule:nonzero;"/><path d="M3.525,2.573l-0.572,0.046c-0.173,0.26 -0.379,0.491 -0.417,0.533l-0.057,0.062l-0.056,-0.062c-0.032,-0.035 -0.179,-0.199 -0.326,-0.402l-0.249,0.413l-0.055,1.255c0.192,0.058 0.396,0.089 0.607,0.089c0.534,0 1.021,-0.199 1.392,-0.526c-0.086,-0.454 -0.178,-0.94 -0.267,-1.408" style="fill:#fff;fill-rule:nonzero;"/><path d="M3.492,0.777c-0,0 -0,0 -0,0.001l-0,0c0.061,0.318 0.151,0.785 0.281,1.47l0.724,-0.059c-0.069,-0.691 -0.472,-1.283 -1.045,-1.614c0.012,0.059 0.025,0.127 0.04,0.202" style="fill:#fff;fill-rule:nonzero;"/><path d="M3.468,2.272c-0.093,-0.486 -0.18,-0.939 -0.249,-1.298l-2.109,0.325c0.002,0.338 -0,0.89 -0.008,1.799l0.498,-0.115l0.311,-0.516c-0.088,-0.155 -0.153,-0.31 -0.153,-0.433c0,-0.397 0.324,-0.721 0.721,-0.721c0.398,0 0.721,0.324 0.721,0.721c0,0.079 -0.026,0.169 -0.067,0.265l0.335,-0.027Z" style="fill:#fff;fill-rule:nonzero;"/><path d="M4.051,3.709c0.267,-0.337 0.434,-0.757 0.454,-1.214l-0.674,0.054c0.064,0.337 0.137,0.722 0.22,1.16" style="fill:#fff;fill-rule:nonzero;"/><path d="M0.797,3.099c0.005,-0.657 0.011,-1.648 0.007,-2.074c-0.318,0.369 -0.511,0.849 -0.511,1.375c-0,0.3 0.063,0.585 0.176,0.844l0.343,-0.079c-0.01,-0.02 -0.015,-0.042 -0.015,-0.066" style="fill:#fff;fill-rule:nonzero;"/><path d="M1.537,3.311l-0.92,0.211c0.212,0.336 0.515,0.608 0.876,0.78l0.044,-0.991Z" style="fill:#fff;fill-rule:nonzero;"/><path d="M4.051,3.709c-0.083,-0.438 -0.156,-0.823 -0.22,-1.16l0.674,-0.054c-0.02,0.457 -0.187,0.877 -0.454,1.214m-2.258,0.709l0.055,-1.255l0.249,-0.413c0.147,0.203 0.294,0.367 0.326,0.402l0.056,0.062l0.057,-0.062c0.038,-0.042 0.244,-0.273 0.417,-0.533l0.572,-0.046c0.089,0.468 0.181,0.954 0.267,1.408c-0.371,0.327 -0.858,0.526 -1.392,0.526c-0.211,0 -0.415,-0.031 -0.607,-0.089m-1.176,-0.896l0.92,-0.211l-0.044,0.991c-0.361,-0.172 -0.664,-0.444 -0.876,-0.78m-0.324,-1.122c-0,-0.526 0.193,-1.006 0.511,-1.375c0.004,0.426 -0.002,1.417 -0.007,2.074c-0,0.024 0.005,0.046 0.015,0.066l-0.343,0.079c-0.113,-0.259 -0.176,-0.544 -0.176,-0.844m2.818,-1.984c0.014,0.072 0.031,0.159 0.05,0.259l-2.053,0.316c-0.004,-0.207 -0.01,-0.228 -0.016,-0.242c0.36,-0.285 0.814,-0.456 1.308,-0.456c0.25,-0 0.489,0.044 0.711,0.123m-0.632,0.897c-0.397,0 -0.721,0.324 -0.721,0.721c0,0.123 0.065,0.278 0.153,0.433l-0.31,0.516l-0.499,0.115c0.008,-0.909 0.01,-1.461 0.008,-1.799l2.109,-0.325c0.069,0.359 0.156,0.812 0.249,1.298l-0.336,0.027c0.042,-0.095 0.068,-0.186 0.068,-0.265c0,-0.397 -0.323,-0.721 -0.721,-0.721m-0.568,0.721c-0,-0.313 0.255,-0.568 0.568,-0.568c0.314,-0 0.569,0.255 0.569,0.568c-0,0.243 -0.37,0.721 -0.569,0.951c-0.199,-0.23 -0.568,-0.708 -0.568,-0.951m2.586,0.155l-0.724,0.059c-0.13,-0.685 -0.22,-1.152 -0.281,-1.47l-0,-0c-0,-0.001 -0,-0.001 -0,-0.001c-0.015,-0.075 -0.028,-0.143 -0.04,-0.202c0.573,0.331 0.976,0.923 1.045,1.614m0.301,0.282c0.001,-0.024 0.002,-0.047 0.002,-0.071c0,-0.039 -0.001,-0.079 -0.003,-0.118c-0.002,-0.036 -0.005,-0.072 -0.008,-0.108c-0,-0.003 -0,-0.005 -0.001,-0.008c-0.117,-1.216 -1.141,-2.166 -2.388,-2.166c-1.325,0 -2.4,1.075 -2.4,2.4c0,0.322 0.064,0.63 0.179,0.91l0,0.001c0.04,0.096 0.086,0.19 0.138,0.28c-0,0 -0,0 -0,0c0.287,0.501 0.748,0.887 1.301,1.078c0.006,0.002 0.013,0.004 0.019,0.007c0.24,0.08 0.496,0.124 0.763,0.124c0.611,0 1.168,-0.228 1.591,-0.604c0,-0 0.001,-0 0.001,-0c0.044,-0.04 0.087,-0.08 0.128,-0.123c0,0 0,0 0,0c0.405,-0.417 0.66,-0.979 0.678,-1.602" style="fill:#0063af;fill-rule:nonzero;"/><path d="M2.141,2.034c-0,-0.186 0.151,-0.338 0.338,-0.338c0.187,0 0.339,0.152 0.339,0.338c-0,0.187 -0.152,0.339 -0.339,0.339c-0.187,-0 -0.338,-0.152 -0.338,-0.339m0.338,0.951c0.199,-0.23 0.569,-0.708 0.569,-0.951c-0,-0.313 -0.255,-0.568 -0.569,-0.568c-0.313,-0 -0.568,0.255 -0.568,0.568c-0,0.243 0.369,0.721 0.568,0.951" style="fill:#e4003d;fill-rule:nonzero;"/><path d="M2.818,2.034c-0,-0.186 -0.152,-0.338 -0.339,-0.338c-0.187,0 -0.338,0.152 -0.338,0.338c-0,0.187 0.151,0.339 0.338,0.339c0.187,-0 0.339,-0.152 0.339,-0.339" style="fill:#0063af;fill-rule:nonzero;"/><path d="M1.108,0.991l2.053,-0.317c-0.019,-0.099 -0.036,-0.186 -0.05,-0.258c-0.222,-0.079 -0.461,-0.123 -0.711,-0.123c-0.494,-0 -0.948,0.171 -1.308,0.455c0.006,0.015 0.012,0.036 0.016,0.243" style="fill:#fff;fill-rule:nonzero;"/><path d="M3.525,2.573l-0.572,0.046c-0.173,0.26 -0.379,0.491 -0.417,0.533l-0.057,0.062l-0.056,-0.062c-0.032,-0.035 -0.179,-0.199 -0.326,-0.402l-0.249,0.413l-0.055,1.255c0.192,0.058 0.396,0.089 0.607,0.089c0.534,0 1.021,-0.199 1.392,-0.526c-0.086,-0.454 -0.178,-0.94 -0.267,-1.408" style="fill:#fff;fill-rule:nonzero;"/><path d="M3.492,0.777c-0,0 -0,0 -0,0.001l-0,0c0.061,0.318 0.151,0.785 0.281,1.47l0.724,-0.059c-0.069,-0.691 -0.472,-1.283 -1.045,-1.614c0.012,0.059 0.025,0.127 0.04,0.202" style="fill:#fff;fill-rule:nonzero;"/><path d="M3.468,2.272c-0.093,-0.486 -0.18,-0.939 -0.249,-1.298l-2.109,0.325c0.002,0.338 -0,0.89 -0.008,1.799l0.498,-0.115l0.311,-0.516c-0.088,-0.155 -0.153,-0.31 -0.153,-0.433c0,-0.397 0.324,-0.721 0.721,-0.721c0.398,0 0.721,0.324 0.721,0.721c0,0.079 -0.026,0.169 -0.067,0.265l0.335,-0.027Z" style="fill:#fff;fill-rule:nonzero;"/><path d="M4.051,3.709c0.267,-0.337 0.434,-0.757 0.454,-1.214l-0.674,0.054c0.064,0.337 0.137,0.722 0.22,1.16" style="fill:#fff;fill-rule:nonzero;"/><path d="M0.797,3.099c0.005,-0.657 0.011,-1.648 0.007,-2.074c-0.318,0.369 -0.511,0.849 -0.511,1.375c-0,0.3 0.063,0.585 0.176,0.844l0.343,-0.079c-0.01,-0.02 -0.015,-0.042 -0.015,-0.066" style="fill:#fff;fill-rule:nonzero;"/><path d="M1.537,3.311l-0.92,0.211c0.212,0.336 0.515,0.608 0.876,0.78l0.044,-0.991Z" style="fill:#fff;fill-rule:nonzero;"/><path d="M4.051,3.709c-0.083,-0.438 -0.156,-0.823 -0.22,-1.16l0.674,-0.054c-0.02,0.457 -0.187,0.877 -0.454,1.214m-2.258,0.709l0.055,-1.255l0.249,-0.413c0.147,0.203 0.294,0.367 0.326,0.402l0.056,0.062l0.057,-0.062c0.038,-0.042 0.244,-0.273 0.417,-0.533l0.572,-0.046c0.089,0.468 0.181,0.954 0.267,1.408c-0.371,0.327 -0.858,0.526 -1.392,0.526c-0.211,0 -0.415,-0.031 -0.607,-0.089m-1.176,-0.896l0.92,-0.211l-0.044,0.991c-0.361,-0.172 -0.664,-0.444 -0.876,-0.78m-0.324,-1.122c-0,-0.526 0.193,-1.006 0.511,-1.375c0.004,0.426 -0.002,1.417 -0.007,2.074c-0,0.024 0.005,0.046 0.015,0.066l-0.343,0.079c-0.113,-0.259 -0.176,-0.544 -0.176,-0.844m2.818,-1.984c0.014,0.072 0.031,0.159 0.05,0.259l-2.053,0.316c-0.004,-0.207 -0.01,-0.228 -0.016,-0.242c0.36,-0.285 0.814,-0.456 1.308,-0.456c0.25,-0 0.489,0.044 0.711,0.123m-0.632,0.897c-0.397,0 -0.721,0.324 -0.721,0.721c0,0.123 0.065,0.278 0.153,0.433l-0.31,0.516l-0.499,0.115c0.008,-0.909 0.01,-1.461 0.008,-1.799l2.109,-0.325c0.069,0.359 0.156,0.812 0.249,1.298l-0.336,0.027c0.042,-0.095 0.068,-0.186 0.068,-0.265c0,-0.397 -0.323,-0.721 -0.721,-0.721m-0.568,0.721c-0,-0.313 0.255,-0.568 0.568,-0.568c0.314,-0 0.569,0.255 0.569,0.568c-0,0.243 -0.37,0.721 -0.569,0.951c-0.199,-0.23 -0.568,-0.708 -0.568,-0.951m2.586,0.155l-0.724,0.059c-0.13,-0.685 -0.22,-1.152 -0.281,-1.47l-0,-0c-0,-0.001 -0,-0.001 -0,-0.001c-0.015,-0.075 -0.028,-0.143 -0.04,-0.202c0.573,0.331 0.976,0.923 1.045,1.614m0.301,0.282c0.001,-0.024 0.002,-0.047 0.002,-0.071c0,-0.039 -0.001,-0.079 -0.003,-0.118c-0.002,-0.036 -0.005,-0.072 -0.008,-0.108c-0,-0.003 -0,-0.005 -0.001,-0.008c-0.117,-1.216 -1.141,-2.166 -2.388,-2.166c-1.325,0 -2.4,1.075 -2.4,2.4c0,0.322 0.064,0.63 0.179,0.91l0,0.001c0.04,0.096 0.086,0.19 0.138,0.28c-0,0 -0,0 -0,0c0.287,0.501 0.748,0.887 1.301,1.078c0.006,0.002 0.013,0.004 0.019,0.007c0.24,0.08 0.496,0.124 0.763,0.124c0.611,0 1.168,-0.228 1.591,-0.604c0,-0 0.001,-0 0.001,-0c0.044,-0.04 0.087,-0.08 0.128,-0.123c0,0 0,0 0,0c0.405,-0.417 0.66,-0.979 0.678,-1.602" style="fill:#0063af;fill-rule:nonzero;"/><path d="M2.141,2.034c-0,-0.186 0.151,-0.338 0.338,-0.338c0.187,0 0.339,0.152 0.339,0.338c-0,0.187 -0.152,0.339 -0.339,0.339c-0.187,-0 -0.338,-0.152 -0.338,-0.339m0.338,0.951c0.199,-0.23 0.569,-0.708 0.569,-0.951c-0,-0.313 -0.255,-0.568 -0.569,-0.568c-0.313,-0 -0.568,0.255 -0.568,0.568c-0,0.243 0.369,0.721 0.568,0.951" style="fill:#91c01b;fill-rule:nonzero;"/><path d="M2.818,2.034c-0,-0.186 -0.152,-0.338 -0.339,-0.338c-0.187,0 -0.338,0.152 -0.338,0.338c-0,0.187 0.151,0.339 0.338,0.339c0.187,-0 0.339,-0.152 0.339,-0.339" style="fill:#0063af;fill-rule:nonzero;"/></g></g></svg>