<?xml version="1.0" encoding="UTF-8" standalone="no"?><!DOCTYPE svg PUBLIC "-//W3C//DTD SVG 1.1//EN" "http://www.w3.org/Graphics/SVG/1.1/DTD/svg11.dtd"><svg width="100%" height="100%" viewBox="0 0 5 5" version="1.1" xmlns="http://www.w3.org/2000/svg" xmlns:xlink="http://www.w3.org/1999/xlink" xml:space="preserve" xmlns:serif="http://www.serif.com/" style="fill-rule:evenodd;clip-rule:evenodd;stroke-linecap:round;stroke-linejoin:round;stroke-miterlimit:10;"><rect id="Artboard3" x="0" y="0" width="4.8" height="4.8" style="fill:none;"/><clipPath id="_clip1"><rect x="0" y="0" width="4.8" height="4.8"/></clipPath><g clip-path="url(#_clip1)"><g><g><path d="M2.724,4.778c0.003,-0 0.005,-0 0.007,-0.001c0.053,-0.007 0.106,-0.017 0.158,-0.028c0.011,-0.002 0.022,-0.004 0.032,-0.006c0.051,-0.012 0.101,-0.024 0.151,-0.038c0,-0.001 0.002,-0.001 0.002,-0.001c0.053,-0.016 0.105,-0.033 0.156,-0.052c0.007,-0.003 0.013,-0.005 0.02,-0.008c0.103,-0.038 0.202,-0.084 0.298,-0.136c0.003,-0.002 0.005,-0.004 0.008,-0.005c0.732,-0.403 1.232,-1.177 1.244,-2.073c0.017,-1.325 -1.044,-2.413 -2.369,-2.43c-1.326,-0.017 -2.414,1.044 -2.431,2.369c-0.011,0.863 0.435,1.625 1.113,2.057c0,-0 0.001,0 0.001,0c0.044,0.028 0.09,0.055 0.136,0.081c0.003,0.001 0.006,0.003 0.009,0.004c0.042,0.023 0.085,0.044 0.128,0.064c0.006,0.004 0.013,0.007 0.019,0.009c0.069,0.032 0.14,0.06 0.212,0.085c0.006,0.002 0.011,0.004 0.016,0.006c0.019,0.006 0.038,0.012 0.058,0.018c0.009,0.003 0.019,0.006 0.029,0.009c0.042,0.012 0.085,0.024 0.128,0.034c0.007,0.001 0.015,0.003 0.022,0.005c0.049,0.011 0.099,0.021 0.15,0.029c0.01,0.001 0.019,0.003 0.029,0.004c0.041,0.006 0.083,0.011 0.124,0.015c0.014,0.001 0.028,0.002 0.041,0.003c0.051,0.004 0.103,0.007 0.155,0.008c0.054,0.001 0.108,-0.001 0.162,-0.004c0.013,-0.001 0.027,-0.002 0.04,-0.003c0.051,-0.003 0.102,-0.008 0.152,-0.015" style="fill:#0a6cb5;fill-rule:nonzero;"/><path d="M1.331,3.641l0,-0.309c0,-0.135 0.11,-0.245 0.245,-0.245l1.677,0c0.134,0 0.244,0.11 0.244,0.245l0,0.309l-2.166,-0Z" style="fill:#fff;fill-rule:nonzero;"/><path d="M3.253,3.022l-1.677,-0c-0.171,-0 -0.31,0.139 -0.31,0.31l-0,0.374l2.297,0l-0,-0.374c-0,-0.171 -0.139,-0.31 -0.31,-0.31m-0,0.131c0.098,-0 0.179,0.08 0.179,0.179l-0,0.243l-2.035,0l-0,-0.243c-0,-0.099 0.08,-0.179 0.179,-0.179l1.677,-0" style="fill:#0b6cb5;fill-rule:nonzero;"/><path d="M0.861,4.121l-0,-0.229c-0,-0.085 0.15,-0.225 0.311,-0.225l2.485,0c0.16,0 0.311,0.14 0.311,0.225l-0,0.229l-3.107,-0Z" style="fill:#fff;fill-rule:nonzero;"/><path d="M3.657,3.621l-2.485,0c-0.181,0 -0.358,0.155 -0.358,0.271l0,0.275l3.2,-0l0,-0.275c0,-0.116 -0.177,-0.271 -0.357,-0.271m-0,0.093c0.146,-0 0.265,0.128 0.265,0.178l-0,0.182l-3.015,0l-0,-0.182c-0,-0.05 0.119,-0.178 0.265,-0.178l2.485,-0" style="fill:#0b6cb5;fill-rule:nonzero;"/><path d="M2.499,0.745l0,0.421" style="fill:none;fill-rule:nonzero;stroke:#fff;stroke-width:1.55px;"/><path d="M2.965,1.244l0.298,-0.298" style="fill:none;fill-rule:nonzero;stroke:#fff;stroke-width:1.55px;"/><path d="M3.3,1.627l0.343,-0.22" style="fill:none;fill-rule:nonzero;stroke:#fff;stroke-width:1.55px;"/><path d="M1.205,1.407l0.343,0.22" style="fill:none;fill-rule:nonzero;stroke:#fff;stroke-width:1.55px;"/><path d="M1.709,0.946l0.297,0.298" style="fill:none;fill-rule:nonzero;stroke:#fff;stroke-width:1.55px;"/><path d="M1.574,3.169l0,-1.002c0,-0.416 0.338,-0.754 0.754,-0.754l0.171,-0c0.416,-0 0.754,0.338 0.754,0.754l0,1.002l-1.679,0Z" style="fill:#e51f28;fill-rule:nonzero;"/><path d="M2.499,1.347l-0.171,0c-0.452,0 -0.819,0.368 -0.819,0.82l-0,1.067l1.81,0l-0,-1.067c-0,-0.452 -0.368,-0.82 -0.82,-0.82m0,0.131c0.38,0 0.689,0.309 0.689,0.689l-0,0.937l-1.548,-0l-0,-0.937c-0,-0.38 0.308,-0.689 0.688,-0.689l0.171,0" style="fill:#fff;fill-rule:nonzero;"/><path d="M1.858,2.167c-0,-0.26 0.21,-0.471 0.47,-0.471l0.172,0" style="fill:none;fill-rule:nonzero;stroke:#fff;stroke-width:1.55px;"/><path d="M2.724,4.778c0.003,-0 0.005,-0 0.007,-0.001c0.053,-0.007 0.106,-0.017 0.158,-0.028c0.011,-0.002 0.022,-0.004 0.032,-0.006c0.051,-0.012 0.101,-0.024 0.151,-0.038c0,-0.001 0.002,-0.001 0.002,-0.001c0.053,-0.016 0.105,-0.033 0.156,-0.052c0.007,-0.003 0.013,-0.005 0.02,-0.008c0.103,-0.038 0.202,-0.084 0.298,-0.136c0.003,-0.002 0.005,-0.004 0.008,-0.005c0.732,-0.403 1.232,-1.177 1.244,-2.073c0.017,-1.325 -1.044,-2.413 -2.369,-2.43c-1.326,-0.017 -2.414,1.044 -2.431,2.369c-0.011,0.863 0.435,1.625 1.113,2.057c0,-0 0.001,0 0.001,0c0.044,0.028 0.09,0.055 0.136,0.081c0.003,0.001 0.006,0.003 0.009,0.004c0.042,0.023 0.085,0.044 0.128,0.064c0.006,0.004 0.013,0.007 0.019,0.009c0.069,0.032 0.14,0.06 0.212,0.085c0.006,0.002 0.011,0.004 0.016,0.006c0.019,0.006 0.038,0.012 0.058,0.018c0.009,0.003 0.019,0.006 0.029,0.009c0.042,0.012 0.085,0.024 0.128,0.034c0.007,0.001 0.015,0.003 0.022,0.005c0.049,0.011 0.099,0.021 0.15,0.029c0.01,0.001 0.019,0.003 0.029,0.004c0.041,0.006 0.083,0.011 0.124,0.015c0.014,0.001 0.028,0.002 0.041,0.003c0.051,0.004 0.103,0.007 0.155,0.008c0.054,0.001 0.108,-0.001 0.162,-0.004c0.013,-0.001 0.027,-0.002 0.04,-0.003c0.051,-0.003 0.102,-0.008 0.152,-0.015" style="fill:#0a6cb5;fill-rule:nonzero;"/><path d="M1.331,3.641l0,-0.309c0,-0.135 0.11,-0.245 0.245,-0.245l1.677,0c0.134,0 0.244,0.11 0.244,0.245l0,0.309l-2.166,-0Z" style="fill:#fff;fill-rule:nonzero;"/><path d="M3.253,3.022l-1.677,-0c-0.171,-0 -0.31,0.139 -0.31,0.31l-0,0.374l2.297,0l-0,-0.374c-0,-0.171 -0.139,-0.31 -0.31,-0.31m-0,0.131c0.098,-0 0.179,0.08 0.179,0.179l-0,0.243l-2.035,0l-0,-0.243c-0,-0.099 0.08,-0.179 0.179,-0.179l1.677,-0" style="fill:#0b6cb5;fill-rule:nonzero;"/><path d="M0.861,4.121l-0,-0.229c-0,-0.085 0.15,-0.225 0.311,-0.225l2.485,0c0.16,0 0.311,0.14 0.311,0.225l-0,0.229l-3.107,-0Z" style="fill:#fff;fill-rule:nonzero;"/><path d="M3.657,3.621l-2.485,0c-0.181,0 -0.358,0.155 -0.358,0.271l0,0.275l3.2,-0l0,-0.275c0,-0.116 -0.177,-0.271 -0.357,-0.271m-0,0.093c0.146,-0 0.265,0.128 0.265,0.178l-0,0.182l-3.015,0l-0,-0.182c-0,-0.05 0.119,-0.178 0.265,-0.178l2.485,-0" style="fill:#0b6cb5;fill-rule:nonzero;"/><path d="M1.574,3.169l0,-1.002c0,-0.416 0.338,-0.754 0.754,-0.754l0.171,-0c0.416,-0 0.754,0.338 0.754,0.754l0,1.002l-1.679,0Z" style="fill:#e51f28;fill-rule:nonzero;"/><path d="M2.499,1.347l-0.171,0c-0.452,0 -0.819,0.368 -0.819,0.82l-0,1.067l1.81,0l-0,-1.067c-0,-0.452 -0.368,-0.82 -0.82,-0.82m0,0.131c0.38,0 0.689,0.309 0.689,0.689l-0,0.937l-1.548,-0l-0,-0.937c-0,-0.38 0.308,-0.689 0.688,-0.689l0.171,0" style="fill:#fff;fill-rule:nonzero;"/></g><path d="M1.17,1.462l0.343,0.22c0.03,0.02 0.071,0.011 0.09,-0.02c0.02,-0.03 0.011,-0.071 -0.02,-0.09l-0.343,-0.22c-0.03,-0.019 -0.071,-0.01 -0.09,0.02c-0.02,0.03 -0.011,0.071 0.02,0.09Z" style="fill:#fff;"/><path d="M1.662,0.993l0.298,0.297c0.026,0.026 0.067,0.026 0.093,0c0.025,-0.025 0.025,-0.067 -0,-0.092l-0.298,-0.298c-0.026,-0.025 -0.067,-0.025 -0.093,0c-0.025,0.026 -0.025,0.067 0,0.093Z" style="fill:#fff;"/><path d="M2.434,0.745l0,0.421c0,0.036 0.029,0.065 0.065,0.065c0.037,0 0.066,-0.029 0.066,-0.065l-0,-0.421c-0,-0.036 -0.029,-0.066 -0.066,-0.066c-0.036,0 -0.065,0.03 -0.065,0.066Z" style="fill:#fff;"/><path d="M3.011,1.29l0.298,-0.297c0.025,-0.026 0.025,-0.067 -0,-0.093c-0.026,-0.026 -0.067,-0.026 -0.093,-0l-0.297,0.298c-0.026,0.025 -0.026,0.067 -0,0.092c0.025,0.026 0.067,0.026 0.092,0Z" style="fill:#fff;"/><path d="M3.335,1.682l0.343,-0.22c0.031,-0.019 0.04,-0.06 0.02,-0.09c-0.019,-0.03 -0.06,-0.039 -0.09,-0.02l-0.343,0.22c-0.031,0.019 -0.04,0.06 -0.02,0.09c0.019,0.031 0.06,0.04 0.09,0.02Z" style="fill:#fff;"/><path d="M1.923,2.167c0,-0.224 0.181,-0.405 0.405,-0.405l0.172,-0c0.036,-0 0.065,-0.03 0.065,-0.066c-0,-0.036 -0.029,-0.065 -0.065,-0.065l-0.172,-0c-0.296,-0 -0.536,0.24 -0.536,0.536c0,0.036 0.029,0.065 0.066,0.065c0.036,0 0.065,-0.029 0.065,-0.065Z" style="fill:#fff;"/></g></g></svg>