<?xml version="1.0" encoding="UTF-8" standalone="no"?><!DOCTYPE svg PUBLIC "-//W3C//DTD SVG 1.1//EN" "http://www.w3.org/Graphics/SVG/1.1/DTD/svg11.dtd"><svg width="100%" height="100%" viewBox="0 0 5 5" version="1.1" xmlns="http://www.w3.org/2000/svg" xmlns:xlink="http://www.w3.org/1999/xlink" xml:space="preserve" xmlns:serif="http://www.serif.com/" style="fill-rule:evenodd;clip-rule:evenodd;stroke-linejoin:round;stroke-miterlimit:2;"><rect id="Artboard2" x="-0" y="0" width="4.8" height="4.8" style="fill:none;"/><clipPath id="_clip1"><rect x="-0" y="0" width="4.8" height="4.8"/></clipPath><g clip-path="url(#_clip1)"><circle cx="2.463" cy="2.352" r="2.004" style="fill:#ebebeb;"/><g><path d="M2.841,1.556c-0.098,0 -0.19,0.038 -0.26,0.108l-0.886,0.886c-0.069,0.069 -0.107,0.161 -0.107,0.26c-0,0.098 0.038,0.19 0.107,0.259c0.019,0.02 0.019,0.051 0,0.071c-0.009,0.009 -0.022,0.014 -0.035,0.014c-0.013,-0 -0.025,-0.005 -0.035,-0.014c-0.088,-0.089 -0.137,-0.206 -0.137,-0.33c0,-0.125 0.049,-0.242 0.137,-0.33l0.886,-0.886c0.088,-0.089 0.205,-0.137 0.33,-0.137c0.027,-0 0.05,0.022 0.05,0.05c-0,0.027 -0.023,0.049 -0.05,0.049m-0.355,0.963c-0.02,0.02 -0.046,0.031 -0.074,0.031c-0.027,-0 -0.053,-0.011 -0.073,-0.031c-0.02,-0.019 -0.031,-0.045 -0.031,-0.073c0,-0.028 0.011,-0.054 0.031,-0.073c0.039,-0.04 0.107,-0.04 0.147,-0c0.019,0.019 0.03,0.045 0.03,0.073c0,0.028 -0.011,0.054 -0.03,0.073m-0.098,0.358c-0.062,0.062 -0.162,0.062 -0.224,0c-0.061,-0.062 -0.061,-0.162 0.001,-0.224c0.061,-0.061 0.161,-0.061 0.223,0c0.062,0.062 0.062,0.162 0,0.224" style="fill:#0063af;fill-rule:nonzero;"/><path d="M3.818,2.028c-0.012,-0.012 -0.021,-0.026 -0.027,-0.04l-0.31,-0c-0.014,0.147 -0.079,0.284 -0.185,0.39l-0.084,0.084l0.316,0.092c0.003,-0.003 0.005,-0.006 0.008,-0.009c0.049,-0.048 0.132,-0.048 0.18,-0c0.024,0.024 0.038,0.056 0.038,0.09c-0,0.034 -0.014,0.066 -0.038,0.09c-0.024,0.024 -0.056,0.037 -0.09,0.037c-0.034,-0 -0.066,-0.013 -0.09,-0.037c-0.02,-0.021 -0.032,-0.047 -0.035,-0.075l-0.369,-0.108l-0.308,0.309l0.263,0.263c0.046,-0.017 0.101,-0.008 0.137,0.027c0.05,0.05 0.05,0.131 0,0.18c-0.024,0.024 -0.056,0.038 -0.09,0.038c-0.034,-0 -0.066,-0.014 -0.09,-0.038c-0.037,-0.037 -0.046,-0.092 -0.028,-0.137l-0.262,-0.263l-0.23,0.229l0.108,0.37c0.027,0.003 0.054,0.014 0.075,0.035c0.049,0.049 0.049,0.13 -0,0.179c-0.024,0.024 -0.056,0.038 -0.09,0.038c-0.034,-0 -0.066,-0.014 -0.09,-0.038c-0.05,-0.049 -0.05,-0.13 -0,-0.179c0.003,-0.003 0.006,-0.006 0.009,-0.008l-0.092,-0.317l-0.034,0.035c-0.11,0.11 -0.254,0.174 -0.408,0.186l0,0.298c0.015,0.006 0.029,0.015 0.041,0.027c0.049,0.049 0.049,0.13 -0,0.18c-0.024,0.024 -0.056,0.037 -0.09,0.037c-0.034,0 -0.066,-0.013 -0.09,-0.037c-0.05,-0.05 -0.05,-0.131 -0,-0.18c0.011,-0.012 0.025,-0.021 0.04,-0.027l0,-0.299c-0.139,-0.011 -0.27,-0.067 -0.375,-0.16l-0.25,0.25c0.019,0.046 0.01,0.101 -0.028,0.138c-0.024,0.024 -0.056,0.037 -0.089,0.037c-0.035,0 -0.066,-0.013 -0.09,-0.037c-0.05,-0.05 -0.05,-0.131 -0,-0.18c0.035,-0.036 0.091,-0.045 0.137,-0.027l0.251,-0.252c-0.095,-0.115 -0.147,-0.258 -0.147,-0.409c-0,-0.002 -0,-0.004 -0,-0.006l-0.303,0c-0.006,0.015 -0.015,0.028 -0.027,0.04c-0.024,0.024 -0.056,0.038 -0.09,0.038c-0.034,-0 -0.066,-0.014 -0.09,-0.037c-0.024,-0.025 -0.037,-0.057 -0.037,-0.091c0,-0.034 0.013,-0.066 0.037,-0.089c0.048,-0.048 0.132,-0.048 0.18,-0c0.012,0.011 0.021,0.025 0.027,0.04l0.312,-0c0.021,-0.132 0.083,-0.254 0.179,-0.35l0.034,-0.034l-0.316,-0.093c-0.003,0.003 -0.005,0.007 -0.008,0.01c-0.024,0.024 -0.056,0.037 -0.09,0.037c-0.034,0 -0.066,-0.013 -0.09,-0.037c-0.024,-0.024 -0.037,-0.056 -0.037,-0.09c-0,-0.034 0.013,-0.066 0.037,-0.09c0.048,-0.048 0.132,-0.048 0.18,-0c0.021,0.021 0.033,0.048 0.036,0.075l0.368,0.108l0.23,-0.23l-0.249,-0.249c-0.015,0.006 -0.031,0.01 -0.048,0.01c-0.034,-0 -0.066,-0.014 -0.09,-0.037c-0.024,-0.025 -0.037,-0.056 -0.037,-0.09c0,-0.034 0.013,-0.066 0.037,-0.09c0.048,-0.048 0.132,-0.048 0.18,-0c0.037,0.037 0.047,0.091 0.028,0.137l0.249,0.249l0.309,-0.309l-0.108,-0.368c-0.028,-0.003 -0.055,-0.015 -0.075,-0.036c-0.05,-0.049 -0.05,-0.13 -0,-0.18c0.048,-0.048 0.132,-0.048 0.18,0c0.049,0.05 0.049,0.131 -0,0.18c-0.003,0.003 -0.007,0.005 -0.01,0.008l0.093,0.316l0.083,-0.083c0.099,-0.099 0.224,-0.161 0.359,-0.181l0,-0.319c-0.015,-0.006 -0.029,-0.015 -0.04,-0.027c-0.05,-0.05 -0.05,-0.13 -0,-0.18c0.048,-0.048 0.131,-0.048 0.179,0c0.024,0.024 0.038,0.056 0.038,0.09c-0,0.034 -0.013,0.066 -0.037,0.09c-0.012,0.012 -0.026,0.021 -0.041,0.027l0,0.311c0.15,0.001 0.292,0.053 0.407,0.148l0.25,-0.251c-0.018,-0.046 -0.009,-0.101 0.028,-0.138c0.048,-0.048 0.132,-0.048 0.18,0c0.024,0.024 0.038,0.056 0.038,0.09c-0,0.034 -0.014,0.066 -0.038,0.09c-0.024,0.024 -0.056,0.037 -0.09,0.037c-0.016,0 -0.032,-0.003 -0.047,-0.009l-0.25,0.25c0.097,0.109 0.153,0.245 0.161,0.391l0.308,0c0.006,-0.014 0.015,-0.028 0.027,-0.04c0.048,-0.048 0.132,-0.048 0.18,-0c0.049,0.05 0.049,0.13 -0,0.18c-0.024,0.024 -0.056,0.037 -0.09,0.037c-0.034,0 -0.066,-0.013 -0.09,-0.037m-1.418,-2.028c-1.325,-0 -2.4,1.074 -2.4,2.4c0,1.326 1.075,2.4 2.4,2.4c1.325,0 2.4,-1.074 2.4,-2.4c0,-1.326 -1.075,-2.4 -2.4,-2.4" style="fill:#0063af;fill-rule:nonzero;"/></g></g></svg>