<?xml version="1.0" encoding="UTF-8" standalone="no"?><!DOCTYPE svg PUBLIC "-//W3C//DTD SVG 1.1//EN" "http://www.w3.org/Graphics/SVG/1.1/DTD/svg11.dtd"><svg width="100%" height="100%" viewBox="0 0 5 5" version="1.1" xmlns="http://www.w3.org/2000/svg" xmlns:xlink="http://www.w3.org/1999/xlink" xml:space="preserve" xmlns:serif="http://www.serif.com/" style="fill-rule:evenodd;clip-rule:evenodd;stroke-linejoin:round;stroke-miterlimit:2;"><rect id="Artboard2" x="-0" y="0" width="4.8" height="4.8" style="fill:none;"/><clipPath id="_clip1"><rect x="-0" y="0" width="4.8" height="4.8"/></clipPath><g clip-path="url(#_clip1)"><g><path d="M2.4,0c-1.325,0 -2.4,1.075 -2.4,2.4c-0,1.326 1.075,2.4 2.4,2.4c1.325,0 2.4,-1.074 2.4,-2.4c-0,-1.325 -1.075,-2.4 -2.4,-2.4" style="fill:#0063af;fill-rule:nonzero;"/><path d="M2.939,3.875c0.938,-0.423 1.141,-1.643 0.429,-2.352c0.106,-0.104 0.213,-0.207 0.318,-0.313c0.069,-0.069 0.068,-0.115 -0.001,-0.185c-0.051,-0.051 -0.104,-0.1 -0.164,-0.158c0.044,-0.038 0.08,-0.066 0.111,-0.1c0.051,-0.053 0.101,-0.107 0.15,-0.162l0.096,-0.095c-0.088,-0.069 -0.181,-0.132 -0.278,-0.188l-0.308,0.308c-0.017,-0.016 -0.034,-0.033 -0.051,-0.049c-0.08,-0.079 -0.119,-0.08 -0.198,-0.001c-0.533,0.533 -1.066,1.066 -1.599,1.599c-0.079,0.079 -0.079,0.12 -0.001,0.199c0.142,0.142 0.284,0.284 0.426,0.425c0.095,0.096 0.129,0.096 0.225,-0c0.353,-0.353 0.706,-0.705 1.057,-1.058c0.023,-0.024 0.035,-0.058 0.051,-0.085c0.495,0.426 0.523,1.226 0.084,1.716c-0.481,0.536 -1.243,0.491 -1.633,0.167c0.203,0 0.392,-0.001 0.582,0.001c0.073,0.001 0.132,-0.015 0.131,-0.1c-0.002,-0.078 -0.057,-0.099 -0.126,-0.099c-0.563,0.001 -1.125,0.001 -1.687,0c-0.073,0 -0.132,0.023 -0.129,0.105c0.003,0.078 0.059,0.095 0.129,0.094c0.234,-0.002 0.468,-0.003 0.702,0.002c0.045,0.001 0.099,0.022 0.134,0.052c0.152,0.134 0.32,0.24 0.511,0.308c0.022,0.008 0.043,0.018 0.067,0.028c-0.114,0.251 -0.225,0.495 -0.335,0.74c0.241,0.081 0.499,0.126 0.768,0.126c0.358,0 0.698,-0.079 1.004,-0.22c-0.137,-0.208 -0.275,-0.414 -0.413,-0.621c-0.018,-0.027 -0.034,-0.055 -0.052,-0.084" style="fill:#fff;"/><path d="M1.272,2.546l0.462,0.462c0.036,0.037 0.096,0.037 0.132,0c0.037,-0.036 0.037,-0.096 0,-0.132l-0.462,-0.462c-0.036,-0.037 -0.096,-0.037 -0.132,-0c-0.037,0.036 -0.037,0.096 -0,0.132Z" style="fill:#fff;"/></g></g></svg>